<svg width="178" height="50" viewBox="0 0 178 50" fill="none" xmlns="http://www.w3.org/2000/svg">
<path d="M14.4867 29.9171V36.6092C14.4867 39.9553 13.0627 41.1618 10.7995 41.1618C8.53637 41.1618 7.11364 39.9553 7.11364 36.6092V11.3105C7.11364 7.96447 8.53764 6.69211 10.8008 6.69211C13.0639 6.69211 14.4867 7.96447 14.4867 11.3105V16.3303H21.2125V11.7789C21.2125 4.28289 17.5902 0 10.6063 0C3.62103 0 0 4.28289 0 11.7789V36.1408C0 43.6368 3.62103 47.9211 10.6063 47.9211C17.5902 47.9211 21.2125 43.6368 21.2125 36.1408V29.9171H14.4867ZM41.3252 0.535526L48.5686 47.3855H41.3901L40.1606 38.8855H31.431L30.2015 47.3855H23.6702L30.9135 0.535526H41.3252ZM35.6992 8.83421L32.3362 32.5276H39.1905L35.8289 8.83289H35.7004L35.6992 8.83421ZM73.9844 47.3855H66.7411C66.3533 46.1803 66.0939 45.4434 66.0939 41.6289V34.2671C66.0939 29.9171 64.6712 28.3105 61.438 28.3105H58.9803V47.3855H51.8667V0.535526H62.6026C69.9743 0.535526 73.1427 4.08289 73.1427 11.3118V14.9921C73.1427 19.8105 71.6552 22.8895 68.4868 24.4289C72.0442 26.1013 73.2076 29.5816 73.2076 34.4684V41.6961C73.2076 43.9724 73.2737 45.6447 73.9844 47.3855ZM62.4081 7.22763H58.9803V21.6184H61.7609C64.4131 21.6184 66.0291 20.4145 66.0291 16.6658V12.0474C66.0291 8.70132 64.9306 7.22763 62.4081 7.22763ZM95.6648 0.535526L102.908 47.3855H95.7297L94.5015 38.8855H85.7706L84.5424 47.3855H78.0098L85.2531 0.535526H95.6648ZM90.0388 8.83421L86.6758 32.5276H93.5314L90.1684 8.83289H90.0388V8.83421ZM109.489 0.535526H102.311L109.295 47.3855H119.901L126.885 0.535526H120.353L114.985 38.75H114.856L109.489 0.535526ZM143.942 0.535526L151.186 47.3855H144.007L142.779 38.8855H134.048L132.819 47.3855H126.287L133.531 0.535526H143.942ZM138.316 8.83421L134.953 32.5276H141.809L138.446 8.83289H138.316V8.83421ZM170.692 47.3855H178V0.535526H171.662V28.5776H171.532L164.354 0.535526H155.43V47.3855H161.833V13.4513H161.961L170.692 47.3855Z" fill="#9C9C9C"/>
</svg>
