<svg width="194" height="51" viewBox="0 0 194 51" fill="none" xmlns="http://www.w3.org/2000/svg">
<path fill-rule="evenodd" clip-rule="evenodd" d="M29.3861 22.0347H32.8538C36.4377 22.0347 38.3739 26.3396 36.0395 29.1289L32.6445 33.1827C33.0121 35.5871 34.2514 37.7609 36.1148 39.2701C37.98 40.78 40.3318 41.5149 42.7019 41.3283C45.0721 41.1417 47.2867 40.0474 48.9048 38.2631C50.5216 36.4796 51.4218 34.1366 51.4255 31.7024C51.4252 31.279 51.5064 30.8596 51.6645 30.4684C51.8225 30.0771 52.0544 29.7216 52.3468 29.4223C52.6391 29.123 52.9862 28.8858 53.3682 28.7241C53.7502 28.5624 54.1596 28.4796 54.5729 28.4803C55.4072 28.4806 56.2073 28.8201 56.7976 29.4242C57.3879 30.0283 57.7202 30.8476 57.7216 31.7024C57.7213 35.084 56.6817 38.3797 54.7503 41.1217C53.3042 43.1706 51.4087 44.8429 49.2165 46.004C47.0242 47.165 44.5965 47.7823 42.1288 47.8063C39.6611 47.8302 37.2224 47.26 35.0091 46.1417C32.7958 45.0233 30.8698 43.3881 29.3861 41.3676C27.9024 43.3881 25.9764 45.0233 23.7631 46.1417C21.5498 47.26 19.1111 47.8302 16.6434 47.8063C14.1757 47.7823 11.748 47.165 9.55571 46.004C7.36346 44.8429 5.46796 43.1706 4.02186 41.1217C2.08996 38.3798 1.04992 35.0842 1.04932 31.7024C1.04898 31.2789 1.13022 30.8594 1.28839 30.4681C1.44655 30.0767 1.67853 29.7212 1.97102 29.4219C2.26352 29.1225 2.61079 28.8853 2.99294 28.7237C3.37508 28.5622 3.78459 28.4794 4.19799 28.4803C5.0323 28.4806 5.8324 28.8201 6.42271 29.4242C7.01302 30.0283 7.34531 30.8476 7.34666 31.7024C7.34313 34.1405 8.23948 36.4897 9.8559 38.2788C11.0628 39.6145 12.6128 40.5745 14.328 41.0488C16.0432 41.5231 17.8541 41.4924 19.553 40.9602C21.2519 40.428 22.77 39.4159 23.9332 38.0401C25.0963 36.6642 25.8573 34.9803 26.1289 33.1814L22.7314 29.1276C20.3983 26.3396 22.3332 22.036 25.9222 22.036L29.3861 22.0347Z" fill="#9C9C9C"/>
<path d="M44.0775 13.4431C44.904 13.4437 45.7226 13.2776 46.4864 12.9541C47.2502 12.6306 47.9444 12.156 48.5292 11.5576C49.1139 10.9591 49.5779 10.2485 49.8946 9.46629C50.2113 8.68407 50.3745 7.8456 50.3748 6.99875C50.3745 6.15191 50.2113 5.31343 49.8946 4.53122C49.5779 3.749 49.1139 3.03837 48.5292 2.43993C47.9444 1.84149 47.2502 1.36695 46.4864 1.04344C45.7226 0.719919 44.904 0.553758 44.0775 0.554445C43.2511 0.55393 42.4326 0.720218 41.6689 1.04381C40.9053 1.36741 40.2113 1.84197 39.6266 2.44039C39.042 3.03882 38.5781 3.74939 38.2615 4.53152C37.9449 5.31365 37.7817 6.15202 37.7814 6.99875C37.7817 7.84549 37.9449 8.68386 38.2615 9.46599C38.5781 10.2481 39.042 10.9587 39.6266 11.5571C40.2113 12.1555 40.9053 12.6301 41.6689 12.9537C42.4326 13.2773 43.2511 13.4436 44.0775 13.4431ZM14.6929 13.4431C15.5193 13.4436 16.3377 13.2773 17.1014 12.9537C17.8651 12.6301 18.559 12.1555 19.1437 11.5571C19.7284 10.9587 20.1922 10.2481 20.5088 9.46599C20.8255 8.68386 20.9886 7.84549 20.9889 6.99875C20.9886 6.15202 20.8255 5.31365 20.5088 4.53152C20.1922 3.74939 19.7284 3.03882 19.1437 2.44039C18.559 1.84197 17.8651 1.36741 17.1014 1.04381C16.3377 0.720218 15.5193 0.55393 14.6929 0.554445C13.8663 0.553758 13.0478 0.719919 12.2839 1.04344C11.5201 1.36695 10.826 1.84149 10.2412 2.43993C9.65637 3.03837 9.19238 3.749 8.8757 4.53122C8.55901 5.31343 8.39584 6.15191 8.39551 6.99875C8.39584 7.8456 8.55901 8.68407 8.8757 9.46629C9.19238 10.2485 9.65637 10.9591 10.2412 11.5576C10.826 12.156 11.5201 12.6306 12.2839 12.9541C13.0478 13.2776 13.8663 13.4437 14.6929 13.4431ZM101.397 2.12891C102.367 2.12891 103.163 2.41268 103.786 2.98022C104.409 3.54775 104.72 4.29314 104.72 5.21637V37.0391C104.72 37.9976 104.427 38.76 103.837 39.3275C103.25 39.8951 102.47 40.1788 101.501 40.1788C100.531 40.1788 99.7529 39.8951 99.1633 39.3288C98.5749 38.76 98.28 37.9976 98.28 37.0404V35.7091C97.5181 37.1633 96.4102 38.2984 94.9552 39.1144C93.536 39.9304 91.9087 40.3384 90.0733 40.3384C87.8908 40.3384 85.9355 39.7708 84.2048 38.6358C82.5073 37.5007 81.1749 35.904 80.2049 33.8457C79.2693 31.7534 78.8022 29.359 78.8022 26.6625C78.8022 23.9661 79.2693 21.607 80.2049 19.584C81.1749 17.5623 82.5073 16.0009 84.2048 14.9011C85.9011 13.8014 87.8577 13.2508 90.0733 13.2508C91.9087 13.2508 93.536 13.6418 94.9565 14.4225C96.3407 15.1676 97.4788 16.3155 98.2277 17.7218V5.10914C98.2277 4.22252 98.5047 3.51245 99.0586 2.98022C99.6483 2.41268 100.427 2.12891 101.397 2.12891ZM91.7874 35.1769C93.8653 35.1769 95.4581 34.4498 96.566 32.9944C97.7083 31.5402 98.28 29.4636 98.28 26.7684C98.28 24.072 97.7083 22.0137 96.566 20.5961C95.4581 19.1407 93.8831 18.4123 91.8398 18.4123C89.7619 18.4123 88.1512 19.1224 87.0089 20.5425C85.8666 21.9614 85.2948 24.0014 85.2948 26.6625C85.2948 29.359 85.8666 31.4513 87.0089 32.9421C88.1512 34.4328 89.744 35.1769 91.7874 35.1769ZM122.982 40.3384C120.386 40.3384 118.1 39.7891 116.127 38.6894C114.187 37.5896 112.681 36.0112 111.607 33.9529C110.534 31.8946 109.997 29.5002 109.997 26.7684C109.997 24.0367 110.533 21.6593 111.607 19.6376C112.681 17.5793 114.187 16.0009 116.125 14.9011C118.1 13.8014 120.386 13.2508 122.982 13.2508C125.579 13.2508 127.847 13.8001 129.786 14.9011C131.73 15.9691 133.307 17.6223 134.305 19.6376C135.379 21.6593 135.916 24.0367 135.916 26.7684C135.916 29.5015 135.379 31.8946 134.305 33.9529C133.307 35.9682 131.73 37.6214 129.786 38.6894C127.847 39.7878 125.578 40.3384 122.982 40.3384ZM122.931 35.1769C125.043 35.1769 126.653 34.4668 127.76 33.048C128.87 31.6291 129.423 29.5355 129.423 26.7684C129.423 24.0367 128.87 21.9614 127.76 20.5425C126.653 19.0871 125.06 18.36 122.982 18.36C120.905 18.36 119.293 19.0871 118.152 20.5425C117.044 21.9614 116.489 24.0367 116.489 26.7684C116.489 29.5355 117.043 31.6291 118.152 33.048C119.26 34.4668 120.853 35.1769 122.931 35.1769ZM162.779 13.3581C163.749 13.3581 164.527 13.6418 165.116 14.2081C165.705 14.7769 165.999 15.5393 165.999 16.4965V37.5177C165.999 41.5977 164.891 44.6838 162.675 46.7788C160.458 48.8711 157.187 49.9172 152.858 49.9172C149.084 49.9172 145.933 49.1914 143.405 47.736C142.124 46.9553 141.483 46.0151 141.483 44.9153C141.483 44.1346 141.657 43.5148 142.003 43.0531C142.383 42.5915 142.868 42.3601 143.457 42.3601C143.769 42.3601 144.15 42.432 144.6 42.5745C145.049 42.7511 145.518 42.9472 146.001 43.1591C147.086 43.6318 148.196 44.0405 149.326 44.3831C150.331 44.6668 151.473 44.8094 152.754 44.8094C157.29 44.8094 159.559 42.5392 159.559 37.9963V34.5911C158.797 36.0465 157.689 37.1803 156.235 37.9976C154.78 38.7783 153.118 39.168 151.248 39.168C149.031 39.168 147.058 38.6358 145.326 37.5726C143.63 36.4715 142.298 34.9468 141.328 32.9957C140.358 31.0433 139.873 28.7914 139.873 26.2362C139.873 23.6823 140.341 21.4291 141.275 19.4781C142.245 17.4904 143.596 15.9656 145.326 14.9011C147.058 13.8014 149.031 13.2508 151.248 13.2508C153.118 13.2508 154.78 13.6588 156.235 14.4748C157.651 15.2179 158.811 16.3881 159.559 17.8278V16.4442C159.559 15.5223 159.853 14.7769 160.442 14.2081C161.03 13.6418 161.81 13.3581 162.779 13.3581ZM152.963 34.0065C155.04 34.0065 156.65 33.3134 157.792 31.9312C158.97 30.5464 159.559 28.6489 159.559 26.2362C159.559 23.7882 158.97 21.8724 157.792 20.4889C156.65 19.1054 155.04 18.4136 152.963 18.4136C150.919 18.4136 149.308 19.1054 148.132 20.4889C146.955 21.8724 146.365 23.7882 146.365 26.2362C146.365 28.6489 146.955 30.5464 148.132 31.9312C149.308 33.3148 150.919 34.0065 152.963 34.0065ZM181.917 40.3384C178.143 40.3384 175.096 39.576 172.776 38.0499C171.668 37.3764 171.114 36.4179 171.114 35.1769C171.114 34.4668 171.304 33.8993 171.685 33.4743C172.066 33.0127 172.534 32.7812 173.087 32.7812C173.676 32.7812 174.49 33.0663 175.529 33.6338C176.637 34.1661 177.641 34.5741 178.541 34.8578C179.477 35.1416 180.653 35.2828 182.073 35.2828C183.528 35.2828 184.653 35.0344 185.45 34.5374C186.281 34.0405 186.696 33.3501 186.696 32.4621C186.696 31.8606 186.523 31.3807 186.176 31.0263C185.865 30.6706 185.276 30.3515 184.411 30.0678C183.579 29.7487 182.299 29.3943 180.567 29.0033C177.486 28.3651 175.269 27.4602 173.918 26.2898C172.602 25.1194 171.945 23.5044 171.945 21.4474C171.945 19.8861 172.394 18.4842 173.296 17.2419C174.195 15.9656 175.424 14.9901 176.983 14.3153C178.576 13.6065 180.377 13.2508 182.384 13.2508C183.839 13.2508 185.242 13.447 186.592 13.8367C187.88 14.1639 189.108 14.7027 190.228 15.4321C191.336 16.1421 191.89 17.0824 191.89 18.2541C191.89 18.9628 191.7 19.567 191.318 20.0626C190.938 20.5242 190.47 20.7557 189.916 20.7557C189.535 20.7557 189.154 20.6838 188.773 20.5425C188.318 20.3048 187.867 20.0563 187.423 19.7971C186.419 19.2649 185.553 18.8752 184.826 18.6268C184.098 18.343 183.198 18.2004 182.125 18.2004C180.844 18.2004 179.823 18.4672 179.061 18.9981C178.333 19.5304 177.969 20.2588 177.969 21.1807C177.969 22.0673 178.351 22.7421 179.113 23.2024C179.875 23.664 181.347 24.1256 183.528 24.5872C185.848 25.0841 187.666 25.6504 188.981 26.2898C190.297 26.928 191.232 27.727 191.785 28.6842C192.375 29.6428 192.669 30.8668 192.669 32.3562C192.669 34.7689 191.682 36.703 189.709 38.1571C187.769 39.6113 185.172 40.3384 181.917 40.3384Z" fill="#9C9C9C"/>
</svg>
