<svg width="209" height="48" viewBox="0 0 209 48" fill="none" xmlns="http://www.w3.org/2000/svg">
<g clip-path="url(#clip0_7_22)">
<path d="M3.42556 37.9857C2.39076 37.9857 1.55221 37.6674 0.909915 37.0307C0.303305 36.3941 0 35.5629 0 34.5373V3.50147C0 2.47579 0.285463 1.68 0.85639 1.11411C1.463 0.548211 2.28371 0.265263 3.31851 0.265263H22.1056C24.2822 0.265263 25.3706 1.18484 25.3706 3.024C25.3706 4.82779 24.2822 5.72968 22.1056 5.72968H6.7976V15.9158H21.0351C23.2117 15.9158 24.3001 16.8354 24.3001 18.6745C24.3001 20.4783 23.2117 21.3802 21.0351 21.3802H6.7976V34.5373C6.7976 35.5629 6.49429 36.3941 5.88768 37.0307C5.28107 37.6674 4.46037 37.9857 3.42556 37.9857ZM35.1897 37.9857C34.2263 37.9857 33.4234 37.7204 32.7811 37.1899C32.1745 36.624 31.8712 35.8282 31.8712 34.8025V3.13011C31.8712 2.10442 32.1745 1.32632 32.7811 0.795789C33.4234 0.265263 34.2263 0 35.1897 0C36.1532 0 36.956 0.265263 37.5983 0.795789C38.2406 1.32632 38.5618 2.10442 38.5618 3.13011V34.8025C38.5618 35.8282 38.2406 36.624 37.5983 37.1899C36.956 37.7204 36.1532 37.9857 35.1897 37.9857ZM66.1753 30.5583C66.7819 30.5583 67.2636 30.7882 67.6204 31.248C68.0129 31.7078 68.2092 32.3267 68.2092 33.1048C68.2092 34.2013 67.5491 35.1208 66.2288 35.8636C65.0156 36.5356 63.6418 37.0838 62.1074 37.5082C60.573 37.8973 59.11 38.0918 57.7184 38.0918C53.5078 38.0918 50.1715 36.8893 47.7094 34.4842C45.2472 32.0792 44.0162 28.7899 44.0162 24.6164C44.0162 21.9638 44.5514 19.6118 45.6219 17.5604C46.6924 15.5091 48.1911 13.9175 50.1179 12.7857C52.0805 11.6539 54.2929 11.088 56.755 11.088C59.11 11.088 61.1618 11.6008 62.9103 12.6265C64.6587 13.6522 66.0147 15.1023 66.9781 16.9768C67.9416 18.8514 68.4233 21.0619 68.4233 23.6084C68.4233 25.1293 67.7453 25.8897 66.3894 25.8897H50.5997C50.8138 28.3301 51.5096 30.1339 52.6871 31.3011C53.8647 32.4328 55.5774 32.9987 57.8255 32.9987C58.9673 32.9987 59.9664 32.8573 60.8228 32.5743C61.7149 32.2914 62.714 31.9023 63.8202 31.4072C64.8907 30.8413 65.6757 30.5583 66.1753 30.5583ZM56.9143 15.7566C55.0944 15.7566 53.6314 16.3225 52.5253 17.4543C51.4548 18.5861 50.8125 20.2131 50.5984 22.3352H62.6949C62.6235 20.1777 62.0883 18.5507 61.0892 17.4543C60.0901 16.3225 58.6984 15.7566 56.9143 15.7566ZM96.0674 32.7865C96.7097 33.4232 97.0308 34.1482 97.0308 34.9617C97.0308 35.7398 96.7275 36.4472 96.1209 37.0838C95.5143 37.6851 94.8006 37.9857 93.9799 37.9857C93.0878 37.9857 92.3207 37.6143 91.6784 36.8716L84.1314 28.5954L76.5845 36.8716C75.9065 37.5789 75.1393 37.9326 74.2829 37.9326C73.4979 37.9326 72.8021 37.632 72.1955 37.0307C71.5889 36.4295 71.2856 35.7398 71.2856 34.9617C71.2856 34.1482 71.6067 33.4232 72.249 32.7865L80.0636 24.3512L72.6772 16.3933C72.0349 15.7566 71.7138 15.0316 71.7138 14.2181C71.7138 13.4046 72.0171 12.7149 72.6237 12.1491C73.2303 11.5478 73.9261 11.2472 74.7111 11.2472C75.5675 11.2472 76.3347 11.6008 77.0127 12.3082L84.1314 20.0539L91.2502 12.3082C91.9281 11.6008 92.6953 11.2472 93.5517 11.2472C94.3724 11.2472 95.0682 11.5478 95.6392 12.1491C96.2458 12.7149 96.5491 13.4046 96.5491 14.2181C96.5491 15.0316 96.2279 15.7566 95.5856 16.3933L88.1993 24.3512L96.0674 32.7865ZM125.679 18.3562C127.856 18.9575 129.533 20.0539 130.71 21.6455C131.924 23.2371 132.53 25.1823 132.53 27.4813C132.53 30.6644 131.371 33.1579 129.051 34.9617C126.767 36.7655 123.609 37.6674 119.577 37.6674H105.768C104.733 37.6674 103.913 37.3844 103.306 36.8185C102.735 36.2526 102.45 35.4568 102.45 34.4312V3.50147C102.45 2.47579 102.735 1.68 103.306 1.11411C103.913 0.548211 104.733 0.265263 105.768 0.265263H119.041C122.966 0.265263 126.035 1.13179 128.247 2.86484C130.495 4.56253 131.619 6.94989 131.619 10.0269C131.619 12.0076 131.084 13.7229 130.013 15.1731C128.979 16.6232 127.533 17.6842 125.678 18.3562H125.679ZM109.194 16.0219H117.918C122.664 16.0219 125.037 14.2712 125.037 10.7697C125.037 9.00126 124.448 7.69263 123.271 6.84379C122.093 5.99495 120.309 5.57053 117.918 5.57053H109.194V16.0219ZM118.828 32.3621C121.326 32.3621 123.146 31.92 124.287 31.0358C125.429 30.1516 126 28.7722 126 26.8977C126 25.0232 125.411 23.6261 124.234 22.7065C123.092 21.7869 121.29 21.3272 118.828 21.3272H109.194V32.3621H118.828ZM141.716 37.9857C140.753 37.9857 139.95 37.7204 139.307 37.1899C138.701 36.624 138.398 35.8282 138.398 34.8025V3.13011C138.398 2.10442 138.701 1.32632 139.307 0.795789C139.95 0.265263 140.753 0 141.716 0C142.679 0 143.482 0.265263 144.125 0.795789C144.767 1.32632 145.088 2.10442 145.088 3.13011V34.8025C145.088 35.8282 144.767 36.624 144.125 37.1899C143.482 37.7204 142.679 37.9857 141.716 37.9857ZM163.924 38.0918C161.247 38.0918 158.892 37.5436 156.858 36.4472C154.86 35.3507 153.308 33.7768 152.202 31.7255C151.096 29.6741 150.542 27.2867 150.542 24.5634C150.542 21.84 151.096 19.4703 152.202 17.4543C153.308 15.4029 154.86 13.8291 156.858 12.7326C158.892 11.6362 161.247 11.088 163.924 11.088C166.6 11.088 168.937 11.6362 170.935 12.7326C172.938 13.7975 174.563 15.4455 175.592 17.4543C176.698 19.4703 177.251 21.84 177.251 24.5634C177.251 27.2867 176.698 29.6741 175.592 31.7255C174.563 33.7343 172.938 35.3823 170.935 36.4472C168.937 37.5436 166.6 38.0918 163.924 38.0918ZM163.87 32.9457C166.047 32.9457 167.706 32.2383 168.848 30.8236C169.99 29.4088 170.561 27.3221 170.561 24.5634C170.561 21.84 169.99 19.7709 168.848 18.3562C167.706 16.9061 166.065 16.1811 163.924 16.1811C161.783 16.1811 160.123 16.9061 158.946 18.3562C157.804 19.7709 157.233 21.84 157.233 24.5634C157.233 27.3221 157.804 29.4088 158.946 30.8236C160.088 32.2383 161.729 32.9457 163.87 32.9457ZM204.933 11.1941C205.933 11.1941 206.735 11.4771 207.342 12.0429C207.949 12.6088 208.252 13.3693 208.252 14.3242V35.28C208.252 39.3474 207.11 42.4244 204.826 44.5112C202.543 46.5979 199.171 47.6413 194.71 47.6413C190.821 47.6413 187.574 46.9162 184.969 45.4661C183.649 44.688 182.988 43.7507 182.988 42.6543C182.988 41.8762 183.167 41.2573 183.524 40.7975C183.916 40.3377 184.416 40.1078 185.022 40.1078C185.344 40.1078 185.736 40.1785 186.2 40.32C186.664 40.4968 187.145 40.6914 187.645 40.9036C188.93 41.4341 190.072 41.8408 191.071 42.1238C192.105 42.4067 193.283 42.5482 194.603 42.5482C199.278 42.5482 201.615 40.2846 201.615 35.7575V32.3621C200.83 33.8122 199.688 34.944 198.189 35.7575C196.691 36.5356 194.978 36.9246 193.051 36.9246C190.767 36.9246 188.733 36.3941 186.949 35.333C185.201 34.2366 183.827 32.7158 182.828 30.7705C181.829 28.8253 181.329 26.5794 181.329 24.0328C181.329 21.4863 181.811 19.2404 182.774 17.2952C183.773 15.3145 185.165 13.7937 186.949 12.7326C188.733 11.6362 190.767 11.088 193.051 11.088C194.978 11.088 196.691 11.4947 198.189 12.3082C199.649 13.0486 200.845 14.2152 201.615 15.6505V14.2712C201.615 13.3516 201.918 12.6088 202.525 12.0429C203.131 11.4771 203.934 11.1941 204.933 11.1941ZM194.817 31.7785C196.958 31.7785 198.618 31.0888 199.795 29.7095C201.008 28.3301 201.615 26.4379 201.615 24.0328C201.615 21.5924 201.008 19.6825 199.795 18.3032C198.618 16.9238 196.958 16.2341 194.817 16.2341C192.712 16.2341 191.053 16.9238 189.84 18.3032C188.626 19.6825 188.02 21.5924 188.02 24.0328C188.02 26.4379 188.626 28.3301 189.84 29.7095C191.053 31.0888 192.712 31.7785 194.817 31.7785Z" fill="#9C9C9C"/>
</g>
<defs>
<clipPath id="clip0_7_22">
<rect width="209" height="48" fill="white"/>
</clipPath>
</defs>
</svg>
