<svg width="177" height="64" viewBox="0 0 177 64" fill="none" xmlns="http://www.w3.org/2000/svg">
<g clip-path="url(#clip0_7_24)">
<path d="M31.7225 13.8035L25.8624 50.025H17.4428L19.5821 36.9459H10.513L8.41705 50.025H0L5.90722 13.8035H14.2797L11.7686 29.097H20.8376L23.3513 13.8035H31.7225ZM48.9908 50.025L49.2709 42.1274H41.5033L39.224 50.025H30.3396L42.2941 13.8035H57.6422L57.8293 50.025H48.9908ZM47.0846 22.6074L43.4108 35.3856H49.504L50.0146 22.6086L47.0846 22.6074ZM93.9539 13.8035L88.0925 50.025H79.6729L73.8141 30.2054L70.651 50.0262H62.2301L68.1374 13.8035H76.7887L82.5571 32.3174L85.5789 13.8035H93.9539ZM113.596 13.8035C117.658 13.8035 120.557 14.9107 122.293 17.1238C123.565 18.8006 124.199 20.8973 124.199 23.4125C124.199 24.3187 124.123 25.2736 123.969 26.2797L122.154 37.4989C121.534 41.2877 120.014 44.3238 117.595 46.6048C115.176 48.8858 112.045 50.025 108.198 50.025H94.6632L100.572 13.8035H113.596ZM110.664 21.6525H107.641L104.34 42.176H108.758C110.215 42.176 111.347 41.7562 112.153 40.919C112.991 40.0461 113.564 38.6381 113.872 36.6938L115.223 28.4429C115.34 27.7773 115.403 27.104 115.409 26.4294C115.409 23.2422 113.829 21.6525 110.664 21.6525ZM149.128 50.025H125.778L131.688 13.8035H155.038L153.735 21.6525H138.758L137.688 28.4442H150.06L148.759 36.2906H136.386L135.456 42.1773H150.433L149.128 50.025ZM175.697 50.025H154.487L160.395 13.8035H168.768L164.163 42.1773H177L175.697 50.025ZM93.5566 56.471H174.471L171.943 64H91.0289L93.5566 56.471ZM8.85 0H97.35L94.8211 7.52896H6.32107L8.85 0Z" fill="#9C9C9C"/>
</g>
<defs>
<clipPath id="clip0_7_24">
<rect width="177" height="64" fill="white"/>
</clipPath>
</defs>
</svg>
