<svg width="264" height="52" viewBox="0 0 264 52" fill="none" xmlns="http://www.w3.org/2000/svg">
<g clip-path="url(#clip0_7_4)">
<mask id="mask0_7_4" style="mask-type:luminance" maskUnits="userSpaceOnUse" x="0" y="0" width="264" height="52">
<path d="M0 0H264V52H0V0Z" fill="white"/>
</mask>
<g mask="url(#mask0_7_4)">
<path fill-rule="evenodd" clip-rule="evenodd" d="M17.6868 45.8144C17.5181 45.8129 17.3521 45.7728 17.2014 45.6971C17.0507 45.6215 16.9193 45.5124 16.8174 45.3781C16.5278 44.9935 16.3322 44.5466 16.2462 44.0731C16.1086 43.4703 16.0027 42.8606 15.9289 42.2467C15.8412 41.4562 15.7963 40.6615 15.7944 39.8661C15.7682 38.1185 15.7742 36.3705 15.8121 34.623C15.835 33.5501 15.8451 32.713 15.8451 32.1093V12.1311C15.8451 11.1469 15.8515 10.3986 15.8629 9.88498C15.8743 9.37132 15.9137 8.79044 15.9784 8.14235C16.0165 7.66039 16.1002 7.18352 16.231 6.71805C16.3579 6.35913 16.5267 6.01669 16.7323 5.69581C16.9227 5.35971 17.1994 5.08196 17.5357 4.89171C17.9267 4.69639 18.329 4.52391 18.7402 4.37171C19.2702 4.17489 19.8194 4.0346 20.3788 3.95318C21.1077 3.84684 21.839 3.75719 22.5721 3.6843V1.83893L22.0009 1.2682H1.79221L1.25659 1.83893V3.41415C4.64798 3.61581 6.54421 4.57718 6.94528 6.29698C7.17882 7.74918 7.29051 9.21786 7.28036 10.6878V41.2879C7.33647 42.8774 7.26899 44.4688 7.07855 46.0478C6.9859 46.2939 6.85009 46.5196 6.67748 46.7175C6.41902 47.0264 6.14582 47.3226 5.85882 47.6053C5.63143 47.8248 5.41377 48.0542 5.20644 48.2927V49.4659C22.4515 49.4659 33.1257 49.5775 37.2291 49.802L38.6697 44.9419L37.766 44.3039C31.1025 45.1422 24.401 45.6458 17.6881 45.8132L17.6868 45.8144ZM49.7425 31.8049C49.677 31.8232 49.6098 31.8343 49.5419 31.8379C49.2081 31.8379 49.0406 31.7161 49.0406 31.4701C49.0419 30.359 49.1256 29.2493 49.2919 28.1509C49.4797 26.9537 49.7932 25.7792 50.2286 24.6492C50.6481 23.5034 51.2234 22.4207 51.9382 21.4315C52.6959 20.4253 53.6797 19.6112 54.8104 19.0551C55.941 18.499 57.1867 18.2165 58.4468 18.2303C59.3562 18.1799 60.263 18.3667 61.0784 18.7723C61.8937 19.1778 62.5894 19.7883 63.0973 20.5437C64.1522 22.106 64.7016 23.9544 64.6712 25.8388C64.6667 26.1843 64.5569 26.5201 64.3564 26.8016C64.1559 27.083 63.8743 27.2967 63.5492 27.4141C61.7168 28.1519 59.8457 28.79 57.9442 29.3254C55.2699 30.1117 52.6043 30.9277 49.9481 31.7732C49.8786 31.7761 49.8096 31.7867 49.7425 31.8049ZM69.6186 42.262C65.6015 44.6971 62.1327 45.9146 59.2135 45.9146C57.2358 45.9576 55.294 45.3835 53.658 44.2722C52.1362 43.2517 50.9261 41.831 50.1613 40.1667C49.4083 38.4978 49.0259 36.6858 49.0406 34.8551C63.6304 30.3197 70.9919 28.0507 71.1252 28.0507C71.7046 27.9323 72.2223 27.6102 72.5844 27.143C72.9466 26.6757 73.1291 26.0942 73.0988 25.504C73.1386 23.8586 72.7525 22.2309 71.9781 20.7783C71.271 19.4792 70.2243 18.3961 68.9497 17.6444C67.6638 16.8902 66.2702 16.3363 64.8171 16.002C63.241 15.6454 61.6291 15.4709 60.0131 15.482C57.1141 15.437 54.2393 16.0144 51.5829 17.1751C49.2406 18.1861 47.1712 19.7368 45.5439 21.7004C44.0096 23.5991 42.8256 25.7554 42.0471 28.0685C41.2399 30.4486 40.8325 32.9458 40.8414 35.4588C40.8414 40.6208 42.2375 44.4865 45.0247 47.0561C47.5454 49.4024 51.1044 50.5743 55.699 50.5743C58.3334 50.5474 60.9265 49.9169 63.2788 48.7315C66.1116 47.3216 68.8252 45.6844 71.393 43.8359L70.6607 42.5321L69.6186 42.262ZM114.688 6.92098C113.791 4.58071 112.03 2.67324 109.768 1.59161C106.966 0.413559 103.939 -0.135427 100.901 -0.0165811C98.6845 -0.0292878 96.4751 0.24093 94.3267 0.787516C92.3283 1.29598 90.4205 2.11012 88.671 3.20108C86.9574 4.28058 85.556 5.78898 84.6057 7.57669C83.5742 9.5321 83.0558 11.717 83.0991 13.927C83.098 15.509 83.4826 17.0675 84.2199 18.4675C84.924 19.8531 85.8769 21.0977 87.0312 22.1392C88.2725 23.2333 89.5918 24.2358 90.9785 25.1387C92.3704 26.0654 93.8119 26.9156 95.2964 27.6855C96.692 28.4023 98.0648 29.1628 99.4125 29.9659C100.529 30.5975 101.578 31.3445 102.541 32.1942C105.016 34.4962 106.255 36.6853 106.255 38.764C106.25 39.8682 106.019 40.9597 105.576 41.9712C105.133 42.9827 104.487 43.8927 103.678 44.6451C102.876 45.4709 101.912 46.1243 100.848 46.5653C99.7837 47.0062 98.6405 47.2255 97.4884 47.2096C96.1413 47.2482 94.8031 46.9784 93.5765 46.4206C92.3498 45.8629 91.267 45.0322 90.4112 43.9919C88.6351 41.9596 87.6653 39.3478 87.6849 36.6498L86.3813 36.1805L79.723 43.6545C81.2447 45.8552 83.3078 47.6273 85.7137 48.8C88.16 49.9992 90.8519 50.6136 93.5766 50.5946C96.0628 50.5821 98.5331 50.1974 100.905 49.4532C103.291 48.7355 105.565 47.692 107.665 46.3522C109.661 45.0785 111.356 43.3864 112.633 41.3932C113.884 39.4978 114.553 37.278 114.557 35.0073C114.567 33.7888 114.352 32.5789 113.922 31.4383C113.525 30.3792 112.972 29.385 112.283 28.4883C111.47 27.4928 110.531 26.6084 109.488 25.8579C108.348 24.999 107.158 24.2092 105.924 23.4925C104.446 22.6514 102.952 21.8412 101.441 21.0624C100.387 20.5521 99.3493 20.0098 98.3286 19.4365C97.3634 18.8728 96.424 18.2659 95.5135 17.6178C94.5799 16.9783 93.7268 16.2288 92.9725 15.3856C92.3096 14.5986 91.768 13.7171 91.3656 12.7703C90.919 11.7508 90.6911 10.6491 90.6967 9.5362C90.6762 8.62601 90.8385 7.72094 91.1743 6.87458C91.51 6.02823 92.0123 5.25779 92.6514 4.60888C93.3267 3.93434 94.135 3.40735 95.0249 3.06131C95.9148 2.71526 96.8669 2.55771 97.8209 2.59864C99.0027 2.54764 100.181 2.75851 101.272 3.21613C102.362 3.67375 103.338 4.36678 104.129 5.24557C105.714 7.03805 106.712 9.27212 106.99 11.6479L108.161 12.0157L114.688 6.92098ZM147.228 19.7751C146.631 18.729 145.764 17.8613 144.719 17.2614C143.684 16.6706 142.568 16.236 141.406 15.9715C140.16 15.6952 138.886 15.5604 137.609 15.5695C135.173 15.5352 132.751 15.95 130.464 16.7934C128.502 17.5053 126.705 18.6053 125.178 20.0275C123.759 21.4009 122.583 23.0037 121.698 24.7684C120.788 26.5436 120.118 28.4317 119.706 30.3831C119.3 32.3568 119.098 34.3671 119.105 36.3822C119.097 38.0943 119.339 39.7989 119.823 41.4401C120.293 43.0293 121.022 44.5297 121.981 45.8817C122.991 47.2762 124.346 48.3848 125.914 49.0993C127.714 49.9212 129.675 50.3283 131.652 50.289C137.921 50.289 143.81 47.5292 149.32 42.0108L148.651 41.0381L147.815 40.8377C143.733 43.9881 139.962 45.5633 136.505 45.5633C135.21 45.5842 133.93 45.2908 132.774 44.7085C131.726 44.1886 130.814 43.4317 130.11 42.4979C129.411 41.5379 128.843 40.4896 128.42 39.3804C127.98 38.2728 127.661 37.1214 127.466 35.9459C127.289 34.8374 127.2 33.7162 127.199 32.5938C127.206 31.1669 127.329 29.7439 127.567 28.3374C127.829 26.771 128.222 25.2301 128.738 23.7284C129.207 22.2608 130.022 20.9273 131.114 19.8398C131.595 19.3531 132.168 18.9675 132.8 18.7057C133.432 18.4439 134.111 18.3112 134.795 18.3153C135.709 18.265 136.619 18.4705 137.423 18.9087C138.227 19.347 138.893 20.0006 139.345 20.7961C140.38 22.6588 140.889 24.7674 140.817 26.8966L141.989 27.3659L148.313 23.613C148.262 22.2658 147.89 20.9503 147.228 19.7751ZM159.493 29.7464C159.663 28.43 159.96 27.1338 160.38 25.8756C160.765 24.6517 161.31 23.4861 162.002 22.4068C162.667 21.407 163.555 20.5752 164.596 19.9768C165.719 19.329 166.997 18.9989 168.294 19.0218C169.7 18.986 171.087 19.3521 172.292 20.077C173.411 20.7737 174.311 21.7733 174.885 22.9598C175.49 24.1862 175.928 25.4875 176.188 26.8306C176.464 28.2765 176.6 29.7477 176.591 31.2215C176.591 32.5621 176.579 33.6794 176.556 34.5723C176.521 35.6479 176.443 36.7217 176.323 37.7912C176.224 38.8439 176.04 39.8852 175.771 40.9074C175.508 41.8079 175.167 42.683 174.75 43.5226C174.367 44.3537 173.814 45.0955 173.127 45.7003C172.417 46.2792 171.614 46.7326 170.751 47.0409C169.705 47.4149 168.6 47.5967 167.489 47.5774C166.265 47.5923 165.067 47.2291 164.058 46.5374C163.074 45.8785 162.256 45.0013 161.667 43.9742C161.049 42.8687 160.566 41.693 160.228 40.4724C159.872 39.2712 159.615 38.0433 159.457 36.8007C159.328 35.7274 159.261 34.6476 159.257 33.5665C159.256 32.2895 159.335 31.0137 159.493 29.7464ZM155.344 47.0751C157.774 49.287 161.634 50.393 166.922 50.393C168.876 50.4057 170.826 50.1812 172.727 49.722C174.515 49.2777 176.22 48.548 177.776 47.5609C179.34 46.575 180.707 45.3077 181.808 43.8232C183.013 42.14 183.908 40.256 184.452 38.2592C185.127 35.8378 185.454 33.3328 185.423 30.8194C185.488 28.7958 185.112 26.7823 184.32 24.9185C183.528 23.0548 182.341 21.3854 180.839 20.0262C178.049 17.5252 174 16.2734 168.692 16.2734C163.383 16.2734 159.011 17.9158 155.575 21.2007C153.888 22.7938 152.557 24.7249 151.669 26.8678C150.781 29.0106 150.356 31.3167 150.422 33.635C150.422 39.6239 152.06 44.1035 155.34 47.0751H155.344ZM207.71 20.5298C209.494 20.5298 210.766 20.8874 211.525 21.6027C212.232 22.4652 212.679 23.5128 212.812 24.6213C213.092 25.9276 213.266 27.2568 213.331 28.5923C213.375 29.7655 213.398 31.2798 213.398 33.1341C213.396 35.5418 213.38 37.9495 213.349 40.357C213.337 41.0824 213.342 41.9373 213.364 42.9215C213.37 43.6545 213.415 44.3876 213.499 45.1156C213.566 45.5976 213.655 46.1226 213.766 46.6908C213.844 47.1677 214.002 47.6256 214.235 48.0479C214.435 48.384 214.682 48.6897 214.968 48.9547C215.972 49.865 217.293 50.3458 218.648 50.2941C220.322 50.2941 222.24 49.4443 224.404 47.7473C226.21 46.2465 227.93 44.6459 229.557 42.9532L228.788 41.8117H227.984C226.676 42.8609 225.075 43.4813 223.401 43.5886C223.047 43.6089 222.692 43.557 222.358 43.436C222.024 43.315 221.718 43.1274 221.459 42.8847C221.228 42.7022 221.03 42.4818 220.873 42.2328C220.689 41.7943 220.571 41.331 220.523 40.858C220.394 39.897 220.338 38.9279 220.355 37.9586C220.355 37.2218 220.394 36.0308 220.472 34.3897C220.534 33.2229 220.573 32.055 220.59 30.8866V28.8751C220.611 26.7076 220.606 25.206 220.573 24.3663C220.506 23.2209 220.378 22.0799 220.187 20.9483C220.104 19.8814 219.747 18.854 219.15 17.9653C218.561 17.3268 217.857 16.8041 217.075 16.4243C216.013 15.9108 214.842 15.6631 213.662 15.7026C209.737 15.7026 205.185 17.3121 200.01 20.5298L199.207 20.2279C199.164 18.9955 198.763 17.8022 198.053 16.7934C197.395 15.9309 196.262 15.5022 194.657 15.5022C193.695 15.5144 192.74 15.6783 191.829 15.988C190.769 16.3431 189.758 16.8276 188.816 17.4288C187.8 18.0667 186.92 18.659 186.172 19.2057C185.424 19.7523 184.56 20.4169 183.579 21.1994L184.817 22.8419C185.044 22.6948 185.273 22.5497 185.503 22.4068C185.893 22.1608 186.233 21.9604 186.524 21.8031C186.813 21.6471 187.16 21.4632 187.561 21.2501C187.92 21.0548 188.295 20.8912 188.683 20.7606C188.978 20.6591 189.288 20.6021 189.602 20.5932C189.989 20.5843 190.371 20.682 190.706 20.8785C191.046 21.103 191.302 21.4328 191.439 21.8171C191.607 22.2229 191.752 22.6351 191.873 23.0562C192.011 23.6231 192.089 24.2015 192.108 24.7836C192.154 25.5446 192.181 26.1584 192.189 26.6264C192.2 27.0944 192.205 27.7983 192.206 28.7381V29.3089C192.206 31.498 192.038 38.2009 191.705 49.4177L192.541 49.8869L200.07 47.708C199.847 46.7479 199.679 43.7205 199.568 38.627C199.457 33.6447 199.403 28.6612 199.405 23.6777C203.286 21.5774 206.052 20.5272 207.703 20.5272L207.71 20.5298ZM240.168 31.9571C240.102 31.9765 240.035 31.9884 239.967 31.9926C239.633 31.9926 239.466 31.8696 239.465 31.6248C239.466 30.5125 239.55 29.404 239.717 28.3057C239.905 27.1084 240.218 25.934 240.653 24.8026C241.073 23.6574 241.646 22.5742 242.36 21.585C243.117 20.5784 244.101 19.7641 245.232 19.208C246.362 18.6519 247.608 18.3695 248.868 18.3838C249.778 18.3333 250.684 18.52 251.5 18.9256C252.315 19.3311 253.011 19.9417 253.519 20.6972C254.574 22.2594 255.123 24.1079 255.091 25.9923C255.086 26.3374 254.977 26.673 254.776 26.9543C254.576 27.2356 254.295 27.4495 253.971 27.5675C252.138 28.305 250.268 28.943 248.367 29.4788C245.692 30.2651 243.026 31.081 240.369 31.9266C240.302 31.9303 240.235 31.9409 240.169 31.9583L240.168 31.9571ZM260.044 42.4154C256.027 44.8518 252.558 46.0694 249.637 46.0681C247.66 46.1107 245.718 45.5371 244.082 44.4269C242.561 43.4061 241.351 41.9855 240.587 40.3215C239.833 38.6519 239.45 36.8389 239.465 35.0073C254.054 30.4732 261.416 28.2055 261.55 28.2055C262.13 28.0865 262.647 27.7641 263.009 27.2967C263.371 26.8293 263.554 26.2478 263.524 25.6575C263.564 24.0121 263.178 22.3844 262.403 20.9318C261.696 19.6326 260.65 18.5495 259.375 17.7979C258.089 17.0439 256.695 16.4901 255.242 16.1554C253.666 15.7987 252.053 15.6242 250.437 15.6354C247.539 15.5907 244.665 16.1681 242.009 17.3286C239.667 18.3395 237.598 19.8902 235.97 21.8539C234.436 23.7522 233.252 25.9086 232.474 28.222C231.666 30.602 231.259 33.0993 231.269 35.6123C231.269 40.7742 232.663 44.6387 235.451 47.2096C237.972 49.5559 241.53 50.7278 246.125 50.7278C248.76 50.7007 251.353 50.0703 253.705 48.885C256.538 47.4749 259.251 45.8381 261.819 43.9906L261.087 42.6856L260.044 42.4154Z" fill="#9C9C9C"/>
</g>
</g>
<defs>
<clipPath id="clip0_7_4">
<rect width="264" height="52" fill="white"/>
</clipPath>
</defs>
</svg>
