<svg width="187" height="45" viewBox="0 0 187 45" fill="none" xmlns="http://www.w3.org/2000/svg">
<g clip-path="url(#clip0_7_10)">
<path d="M61.4371 44.4V0H50.0958L26.3822 34.26L22.3794 29.28C29.5359 28.2 33.5387 21.96 33.5387 15.3C33.5387 8.94 30.0211 3.6 25.2905 1.56C22.9252 0.54 19.4076 0 14.7376 0H0V44.4H10.9774V30.06H11.0987L21.4696 44.4H33.0535L36.9957 37.98H49.9745V44.4H61.4371ZM10.9774 22.32V9.96H15.3441C19.6502 9.96 22.5613 12.12 22.5613 15.96C22.5613 20.04 19.8321 22.32 15.2835 22.32H10.9774ZM49.9745 28.98H42.454L49.8532 16.68H49.9745V28.98ZM107.437 44.4V0H96.4591L96.9443 28.08L79.4775 0H69.5918V44.4H80.5692L80.266 17.28L97.4902 44.4H107.437ZM140.538 44.4V34.44H126.589V26.82H140.114V16.86H126.589V9.96H140.538V0H115.611V44.4H140.538ZM186.103 44.4L170.274 22.14L185.133 0H173.124L160.449 19.98H160.327V0H148.865V44.4H160.327V25.2H160.449L172.7 44.4H186.103Z" fill="#9C9C9C"/>
</g>
<defs>
<clipPath id="clip0_7_10">
<rect width="187" height="45" fill="white"/>
</clipPath>
</defs>
</svg>
