<svg width="256" height="63" viewBox="0 0 256 63" fill="none" xmlns="http://www.w3.org/2000/svg">
<g clip-path="url(#clip0_7_12)">
<path d="M69.6077 56.5894C65.3581 56.5894 62.1005 55.8591 59.8337 54.3985C57.6065 52.8968 56.4941 50.7047 56.4941 47.8234C56.4941 46.3628 56.9805 45.1645 57.9508 44.2311C58.9633 43.2578 60.2586 42.7705 61.8369 42.7705C62.7674 42.8117 63.4753 43.0534 63.9617 43.5008C64.4481 43.9071 64.6913 44.2928 64.6913 44.658C64.6913 44.6978 64.4877 44.8405 64.0833 45.0835C63.6788 45.3278 63.3153 45.693 62.9901 46.179C62.6663 46.6675 62.5037 47.3361 62.5037 48.1885C62.5037 50.0965 63.0721 51.5777 64.2049 52.6332C65.3786 53.6477 67.1796 54.1542 69.6077 54.1542C71.2679 54.1542 72.7245 53.8302 73.9802 53.181C75.2346 52.5317 76.1857 51.6792 76.8333 50.6237C77.5207 49.5282 77.865 48.3917 77.865 47.214C77.865 45.7534 77.4401 44.4959 76.5901 43.4404C75.7646 42.3712 74.7323 41.4807 73.5553 40.8227C72.3393 40.0924 70.6804 39.2592 68.5761 38.3258C66.1479 37.2304 64.1857 36.2365 62.6881 35.343C61.1832 34.4444 59.88 33.2422 58.8609 31.8124C57.81 30.3107 57.2839 28.4644 57.2839 26.2722C57.2839 22.7417 58.4769 20.1034 60.8653 18.3587C63.2948 16.6127 66.4717 15.7409 70.3975 15.7409C73.4733 15.7409 76.1447 16.3902 78.4116 17.6888C80.7194 18.9874 81.8727 20.8954 81.8727 23.4102C81.8727 24.8721 81.3658 26.0897 80.3546 27.0642C79.3831 27.9977 78.1082 28.4644 76.53 28.4644C75.5981 28.4232 74.8903 28.1995 74.4052 27.7945C73.9188 27.3484 73.6756 26.9421 73.6756 26.5769C73.6756 26.5358 73.9393 26.3944 74.4653 26.1501C75.0324 25.9071 75.5175 25.5419 75.922 25.0547C76.3674 24.5674 76.5901 23.8975 76.5901 23.0464C76.5901 21.5447 76.0039 20.3669 74.8301 19.5145C73.6961 18.6621 72.2394 18.2365 70.4577 18.2365C67.9898 18.2365 66.1069 18.8254 64.8129 20.0018C63.5572 21.1384 62.93 22.5591 62.93 24.2639C62.93 25.6834 63.314 26.8817 64.0833 27.8549C64.8513 28.7884 66.0865 29.7218 67.7863 30.6552C69.2603 31.4337 70.7587 32.1648 72.2791 32.8474C74.8698 34.0238 76.914 35.1 78.4116 36.0745C79.9536 37.0526 81.2599 38.3626 82.2362 39.9098C83.2884 41.4912 83.8157 43.4609 83.8157 45.8138C83.8157 47.844 83.1681 49.6902 81.8727 51.3552C80.6183 52.9778 78.8967 54.2558 76.7117 55.1892C74.5665 56.1227 72.1985 56.5894 69.6077 56.5894ZM100.344 56.1034C97.5924 56.1034 95.4061 55.2702 93.7869 53.6065C92.1677 51.9428 91.3588 49.7507 91.3588 47.0314V35.7685C91.3588 34.7142 91.3178 33.9428 91.2372 33.4555C91.1975 32.9695 90.9543 32.5427 90.5076 32.1775C90.0634 31.8124 89.3146 31.6298 88.2625 31.6298C87.7761 31.6298 87.4125 31.5694 87.1693 31.4472C86.9261 31.2852 86.8058 30.9394 86.8058 30.4122C86.8058 30.1679 86.8865 29.9455 87.049 29.7437C87.2103 29.4994 87.4535 29.358 87.7773 29.3168C90.3271 28.9504 92.5133 28.4232 94.3335 27.7328C94.9005 27.5309 95.3652 27.4088 95.73 27.3677H95.9117C96.5594 27.3677 96.8845 27.7534 96.8845 28.5248V46.971C96.8845 48.8378 97.4708 50.2791 98.6445 51.2935C99.7823 52.2544 101.226 52.7728 102.712 52.7541C104.614 52.7541 106.232 52.2874 107.569 51.354C108.905 50.4205 109.796 49.4871 110.24 48.5537V35.7698C110.24 34.7142 110.2 33.9441 110.12 33.4555C110.079 32.9695 109.836 32.5427 109.39 32.1775C108.945 31.8124 108.196 31.6298 107.144 31.6298C106.657 31.6298 106.294 31.5694 106.052 31.4472C105.809 31.2852 105.687 30.9394 105.687 30.4122C105.687 30.1679 105.768 29.9455 105.93 29.7437C106.092 29.4994 106.335 29.358 106.659 29.3168C109.208 28.9504 111.395 28.4232 113.216 27.7328C113.782 27.5309 114.248 27.4088 114.611 27.3677H114.794C115.442 27.3677 115.766 27.7534 115.766 28.5248V49.59C115.766 51.9852 117.365 53.1822 120.562 53.1822C121.249 53.1822 121.594 53.568 121.594 54.3394C121.594 54.9064 121.249 55.2522 120.562 55.3731L110.787 56.043C110.504 56.043 110.341 55.9414 110.3 55.7395C110.262 55.5762 110.24 55.2728 110.24 54.8267V51.4157H110.12C109.19 52.2924 108.239 53.1447 107.265 53.9717C106.537 54.54 105.586 55.0272 104.411 55.4335C103.278 55.8797 101.923 56.1021 100.344 56.1021V56.1034ZM124.915 55.5557C124.774 55.555 124.634 55.5216 124.508 55.4581C124.381 55.3945 124.271 55.3025 124.186 55.1892C124.024 54.9462 123.942 54.6621 123.942 54.3381C123.983 53.811 124.105 53.505 124.307 53.4252C124.511 53.3031 124.874 53.2414 125.4 53.2414C126.453 53.2414 127.201 53.0588 127.647 52.6937C128.092 52.3285 128.335 51.9017 128.375 51.4157C128.457 50.9271 128.497 50.1569 128.497 49.1014V35.1604C128.497 34.1061 128.457 33.3347 128.375 32.8461C128.335 32.3601 128.092 31.9332 127.647 31.5694C127.201 31.2042 126.453 31.0204 125.4 31.0204C124.914 31.0204 124.55 30.96 124.309 30.8378C124.065 30.6758 123.944 30.3312 123.944 29.8028C123.944 29.5598 124.024 29.3361 124.187 29.1342C124.348 28.8899 124.591 28.7485 124.915 28.7074C127.546 28.3011 129.711 27.774 131.411 27.1247C132.1 26.9215 132.565 26.7994 132.808 26.7595H132.99C133.637 26.7595 133.961 27.1452 133.961 27.9167V31.6902H134.143C135.56 30.2695 136.997 29.1535 138.454 28.3422C139.912 27.4898 141.226 27.0642 142.4 27.0642C143.736 27.0642 144.789 27.5708 145.558 28.5852C146.367 29.5598 146.771 30.6964 146.771 31.9949C146.771 33.1315 146.428 34.146 145.74 35.0382C145.051 35.9318 144.1 36.378 142.886 36.378C142.358 36.3873 141.835 36.2616 141.368 36.0128C140.964 35.7685 140.741 35.5667 140.7 35.4047C140.741 35.3237 140.943 35.0794 141.307 34.6731C141.672 34.2269 141.853 33.7204 141.853 33.1521C141.853 32.4205 141.651 31.833 141.247 31.3868C140.882 30.9394 140.376 30.717 139.729 30.717C139.041 30.717 138.171 31.0615 137.119 31.7519C136.065 32.4012 135.034 33.2331 134.022 34.2475V49.1014C134.022 50.1569 134.062 50.9271 134.143 51.4157C134.225 51.9017 134.487 52.3285 134.933 52.6937C135.378 53.0588 136.127 53.2414 137.179 53.2414H137.544C137.868 53.2414 138.109 53.3031 138.272 53.424C138.433 53.5461 138.534 53.8508 138.575 54.3368C138.575 54.6621 138.495 54.9462 138.332 55.1892C138.171 55.4335 137.928 55.5557 137.604 55.5557C135.481 55.4398 133.356 55.3785 131.229 55.3718C129.408 55.3718 127.304 55.4348 124.915 55.5557ZM219.209 56.1034C216.457 56.1034 214.008 55.4528 211.863 54.1542C209.718 52.8158 208.038 51.0698 206.824 48.9188C205.666 46.7905 205.061 44.4037 205.064 41.9785C205.064 38.9352 205.772 36.297 207.189 34.065C208.605 31.7918 210.406 30.0664 212.591 28.8899C214.778 27.6724 216.983 27.0642 219.209 27.0642C221.962 27.0642 224.411 27.7328 226.556 29.0725C228.66 30.3283 230.382 32.1389 231.534 34.308C232.733 36.4 233.361 38.7727 233.356 41.1865C233.356 44.2311 232.627 46.8899 231.171 49.1631C229.754 51.3951 227.953 53.1192 225.766 54.3368C223.581 55.5145 221.395 56.1034 219.209 56.1034ZM219.209 53.8508C221.962 53.8508 223.965 52.6731 225.22 50.319C226.515 47.9661 227.163 44.9215 227.163 41.1878C227.163 37.6971 226.495 34.857 225.16 32.6635C223.864 30.4328 221.88 29.3168 219.209 29.3168C216.417 29.3168 214.394 30.4739 213.138 32.7869C211.884 35.0999 211.256 38.1227 211.256 41.8577C211.256 45.3471 211.904 48.2297 213.199 50.5015C214.495 52.7348 216.498 53.8508 219.209 53.8508ZM248.654 56.4068C246.67 56.4068 244.97 55.6765 243.553 54.216C242.138 52.7541 241.429 50.6648 241.429 47.9455V30.0471L237.907 30.1692C237.789 30.1702 237.673 30.1431 237.567 30.0901C237.462 30.0372 237.371 29.9598 237.301 29.8645C237.141 29.6314 237.056 29.3552 237.057 29.0725C237.057 28.7074 237.119 28.4039 237.239 28.1597C237.402 27.8755 237.624 27.7135 237.907 27.6724C239.324 27.3895 240.417 26.9421 241.187 26.334C241.996 25.6834 242.583 24.9942 242.947 24.2639C243.311 23.4925 243.757 22.3354 244.283 20.7925C244.485 20.2654 244.931 20.0018 245.618 20.0018C245.901 20.0018 246.185 20.0828 246.468 20.2461C246.751 20.3669 246.893 20.5701 246.893 20.8542L246.468 27.7945L253.572 27.3677H253.693C254.22 27.3677 254.482 27.7534 254.482 28.5248C254.482 28.971 254.401 29.3978 254.239 29.8028C254.118 30.1692 253.956 30.3518 253.754 30.3518L246.954 30.1692V48.6758C246.954 50.0155 247.217 51.1315 247.743 52.0238C248.31 52.9174 249.22 53.3635 250.476 53.3635C251.73 53.3635 252.844 53.1398 253.814 52.6937C254.341 52.4905 254.664 52.389 254.785 52.389C255.069 52.389 255.292 52.5111 255.453 52.7541C255.616 52.9572 255.777 53.2427 255.94 53.6065C255.983 53.7022 256.003 53.8064 256 53.9112C256 54.0732 255.878 54.2558 255.635 54.459C254.461 55.2304 253.349 55.7382 252.297 55.9812C251.285 56.2641 250.07 56.4068 248.654 56.4068ZM150.524 55.1892C150.685 55.4335 150.929 55.5544 151.253 55.5544C153.355 55.4384 155.461 55.3775 157.567 55.3718C160.279 55.3718 162.808 55.4335 165.156 55.5544C165.289 55.5574 165.421 55.5253 165.538 55.4612C165.656 55.3972 165.754 55.3034 165.824 55.1892C165.985 54.945 166.066 54.6621 166.066 54.3368C166.026 53.8508 165.925 53.5461 165.763 53.424C165.641 53.3031 165.399 53.2414 165.034 53.2414H164.669C163.334 53.2414 162.383 53.1398 161.816 52.9367C161.249 52.7348 160.865 52.3684 160.663 51.8412C160.461 51.2729 160.36 50.3601 160.36 49.1027V30.1667H166.796C166.937 30.166 167.076 30.1327 167.202 30.0694C167.328 30.0061 167.439 29.9144 167.524 29.8015C167.726 29.5585 167.827 29.2744 167.827 28.9491C167.786 28.4631 167.665 28.1584 167.462 28.0362C167.301 27.8742 167.037 27.7919 166.674 27.7919H160.36V24.1405C160.36 22.1927 160.44 20.4878 160.602 19.0259C160.753 17.5584 161.23 16.1436 161.998 14.8859C162.767 13.6285 163.962 12.9998 165.581 12.9998C165.766 12.9998 165.947 13.0101 166.121 13.0319C166.098 12.3499 166.143 11.6673 166.254 10.9941C166.171 10.9918 166.089 10.9905 166.006 10.9902C162.444 11.0712 159.671 12.4302 157.688 15.0698C155.745 17.6669 154.774 21.0561 154.774 25.2359V27.7932H151.131C150.605 27.7932 150.24 27.8537 150.038 27.9758C149.836 28.0568 149.714 28.3821 149.674 28.9491C149.674 29.2744 149.755 29.5585 149.916 29.8015C150.12 30.0458 150.382 30.168 150.706 30.168H154.774V49.1014C154.774 50.1981 154.733 50.9888 154.652 51.4761C154.613 51.9222 154.369 52.3285 153.924 52.6937C153.478 53.0588 152.73 53.2414 151.677 53.2414C151.151 53.2414 150.787 53.3031 150.584 53.424C150.423 53.5049 150.322 53.8097 150.281 54.3368C150.281 54.6621 150.362 54.9462 150.524 55.1892Z" fill="#9C9C9C"/>
<path fill-rule="evenodd" clip-rule="evenodd" d="M182.979 12.6835C182.978 13.5724 182.803 14.4525 182.463 15.2735C182.124 16.0944 181.627 16.8402 181 17.4682C180.374 18.0962 179.631 18.5941 178.813 18.9335C177.995 19.2729 177.118 19.4472 176.233 19.4463C174.446 19.4477 172.731 18.736 171.466 17.4678C170.201 16.1996 169.49 14.4787 169.488 12.6835C169.488 11.7943 169.663 10.9141 170.003 10.0929C170.342 9.27169 170.839 8.52568 171.465 7.89745C172.092 7.26923 172.835 6.77108 173.653 6.43145C174.471 6.09182 175.348 5.91736 176.233 5.91804C177.118 5.91719 177.995 6.09153 178.813 6.4311C179.631 6.77067 180.375 7.26881 181.001 7.89708C181.628 8.52534 182.125 9.27141 182.464 10.0927C182.803 10.9139 182.978 11.7943 182.979 12.6835ZM176.233 16.0649C176.676 16.0654 177.114 15.9783 177.523 15.8087C177.932 15.639 178.304 15.39 178.617 15.076C178.93 14.762 179.179 14.3891 179.348 13.9786C179.518 13.568 179.606 13.128 179.606 12.6835C179.606 12.2389 179.518 11.7986 179.349 11.388C179.179 10.9773 178.931 10.6042 178.617 10.2901C178.304 9.97593 177.932 9.72687 177.523 9.55711C177.114 9.38736 176.676 9.30024 176.233 9.30075C175.34 9.30041 174.482 9.65635 173.85 10.2904C173.218 10.9244 172.862 11.7847 172.86 12.6822C172.861 13.5799 173.217 14.4405 173.85 15.0748C174.482 15.7091 175.339 16.0652 176.233 16.0649ZM173.276 22.3893V55.0079C173.276 55.3718 173.379 55.6559 173.581 55.859C173.783 56.1033 174.066 56.2242 174.431 56.2242C174.794 56.2242 175.098 56.0622 175.341 55.7382C175.584 55.454 175.807 55.0272 176.009 54.4589C176.211 53.8906 176.393 53.4445 176.556 53.1192H176.859C179.489 55.1082 182.606 56.102 186.208 56.102C188.638 56.102 190.924 55.4528 193.069 54.1542C195.214 52.8556 196.914 51.0903 198.17 48.857C199.464 46.5852 200.112 44.0896 200.112 41.3703C200.112 38.6099 199.546 36.1555 198.412 34.0032C197.32 31.8123 195.802 30.1075 193.859 28.8899C191.916 27.6723 189.75 27.0642 187.363 27.0642C185.905 27.0642 184.428 27.3676 182.93 27.977C181.473 28.5453 180.158 29.417 178.984 30.5947H178.802V22.4999C176.985 22.9737 175.073 22.9355 173.276 22.3893ZM191.612 50.684C190.115 52.9173 188.131 54.0333 185.663 54.0333C184.368 54.0333 183.214 53.7492 182.202 53.1809C181.23 52.6126 180.44 51.9427 179.834 51.1713C179.267 50.36 178.924 49.6285 178.802 48.9805V32.909C180.542 31.0409 182.687 30.1075 185.238 30.1075C188.112 30.1075 190.276 31.244 191.734 33.5172C193.191 35.7492 193.919 38.4479 193.919 41.6133C193.919 45.3882 193.151 48.4122 191.612 50.684ZM16.2561 0.471751C16.6855 0.16443 17.1996 -0.000732422 17.7269 -0.000732422C18.2541 -0.000732422 18.7682 0.16443 19.1976 0.471751C30.1544 8.31975 35.1208 17.7273 35.4344 31.226C35.579 37.6713 34.9608 43.5728 33.0779 48.6706C31.1451 53.7723 27.7109 58.4845 22.6549 62.465C22.34 62.7107 21.972 62.8784 21.5805 62.9543C21.1891 63.0303 20.7853 63.0124 20.4021 62.9022C18.8533 62.456 18.5896 60.6149 17.7269 59.468C16.8641 60.6149 16.603 62.4548 15.0517 62.9009C14.6686 63.0109 14.2651 63.0287 13.8739 62.9527C13.4827 62.8768 13.1148 62.7093 12.8001 62.4638C7.74414 58.4845 4.30862 53.7723 2.3771 48.6706C0.495498 43.5728 -0.124022 37.6713 0.0206177 31.226C0.332938 17.7273 5.29934 8.31847 16.2561 0.471751ZM21.9214 56.651C25.0856 53.7325 26.9928 50.5503 28.3393 46.8899C30.0353 42.4156 30.5243 37.4707 30.3771 31.3443C30.1339 20.8182 27.6763 13.9692 20.2357 7.61004V26.2117C23.1451 26.9626 24.4507 29.8246 24.4507 32.9746C24.4507 36.1272 23.1451 38.9892 20.2357 39.74V54.959C20.2357 54.959 21.5873 56.21 21.9214 56.651ZM13.4888 56.651C10.3246 53.7325 8.46222 50.5503 7.11438 46.8899C5.41966 42.4156 4.9307 37.4707 5.07918 31.3443C5.32238 20.84 7.7659 13.9615 15.1758 7.61004V26.2117C12.2664 26.9626 10.9595 29.8246 10.9595 32.9746C10.9595 36.1272 12.2651 38.9892 15.1758 39.74V54.959C15.1758 54.959 13.8113 56.2255 13.4888 56.651ZM17.7051 29.5932C16.8115 29.5925 15.9542 29.9483 15.3217 30.5824C14.6892 31.2165 14.3333 32.077 14.3323 32.9746C14.3323 34.844 15.8427 36.3573 17.7051 36.3573C18.5987 36.358 19.456 36.0022 20.0885 35.3681C20.721 34.734 21.0769 33.8735 21.0779 32.9759C21.0779 31.1077 19.5675 29.5932 17.7051 29.5932Z" fill="#9C9C9C"/>
</g>
<defs>
<clipPath id="clip0_7_12">
<rect width="256" height="63" fill="white"/>
</clipPath>
</defs>
</svg>
