<svg width="250" height="43" viewBox="0 0 250 43" fill="none" xmlns="http://www.w3.org/2000/svg">
<path d="M27.6071 41.6783C26.1105 41.7182 24.6278 41.3837 23.2959 40.7057C21.9712 40.0326 20.8412 39.0358 20.0128 37.8096C17.4042 40.1853 14.0246 41.5575 10.4847 41.6783C4.12372 41.6783 0.67602 37.2973 1.84056 31.0168C2.72577 26.2944 6.68622 21.5619 7.79337 17.7627C5.65051 16.4879 2.46939 15.6001 0.978316 18.2053L0 17.6248C0.780612 14.7691 2.66709 12.8696 5.39286 12.8696C8.11862 12.8696 10.1339 14.4504 12.7321 12.9948H14.8048C13.699 18.6834 10.9031 23.2338 9.41199 31.1989C8.50383 36.0807 10.1926 38.299 13.0472 38.299C15.1559 38.0419 17.0957 37.025 18.4974 35.442C17.3591 32.6643 16.7852 29.691 16.8087 26.6928C16.8087 19.7748 20.0587 12.4826 25.5102 12.4826C28.3061 12.4826 30.3788 14.3821 30.3788 18.8883C30.3788 23.3932 27.5842 30.368 24.0191 34.7477C24.2117 35.7911 24.7717 36.7358 25.6008 37.42C26.4298 38.103 27.477 38.4824 28.5625 38.4925C33.7577 38.4925 37.3916 30.879 37.3916 23.8371C37.3916 16.7952 34.2704 17.1126 34.5383 14.735C34.5624 14.4379 34.6455 14.1484 34.7827 13.8832C34.9199 13.618 35.1087 13.3822 35.338 13.1895C35.8023 12.7975 36.4069 12.6014 37.0191 12.6419C38.639 12.6419 40.7691 14.6439 40.7691 22.7684C40.7691 33.1213 35.1327 41.6783 27.6071 41.6783ZM26.4311 16.0553C24.8112 16.0553 23.25 21.892 23.0523 27.9221C22.9767 29.2116 23.0002 30.5049 23.1224 31.7908C25.5653 27.8463 27.056 23.3956 27.4783 18.7858C27.4668 16.737 27.0829 16.0541 26.4298 16.0541L26.4311 16.0553ZM51.44 41.4165C50.7607 41.4851 50.0745 41.407 49.4286 41.1876C48.7851 40.9695 48.1974 40.6147 47.7066 40.148C47.219 39.6838 46.8409 39.1185 46.5995 38.4925C46.3586 37.8691 46.2609 37.2003 46.3138 36.5347C46.3138 33.7473 50.0191 19.8545 50.0191 17.5679C50.0191 16.4879 49.7628 15.8505 48.7844 15.8505C47.6929 16.0241 46.6763 16.5103 45.8597 17.2492V15.2813C47.5555 13.756 49.7446 12.8807 52.0332 12.8126C52.7167 12.7524 53.4053 12.8386 54.0523 13.0656C54.6977 13.2932 55.2844 13.6537 55.773 14.1254C56.2602 14.5959 56.6378 15.165 56.8775 15.7948C57.1161 16.4221 57.213 17.0937 57.1582 17.7614C57.1582 20.5488 53.4554 34.3847 53.4554 36.6599C53.4554 37.7413 53.7105 38.3787 54.69 38.3787C55.7669 38.2012 56.7762 37.7414 57.6135 37.0469V38.9465C55.9241 40.4822 53.7312 41.3596 51.44 41.4165ZM55.9821 1.26335C56.4898 1.24817 56.9949 1.33923 57.463 1.53399C57.9298 1.72876 58.3495 2.01964 58.6888 2.38767C59.0294 2.75289 59.2841 3.18847 59.4345 3.66303C59.5849 4.13759 59.6273 4.63932 59.5587 5.13208C59.4334 6.1842 58.9249 7.15474 58.1288 7.86132C57.3259 8.57436 56.2919 8.97861 55.2143 9.00082C54.7072 9.01674 54.2026 8.92444 53.7347 8.73017C53.2682 8.53695 52.8496 8.2457 52.5077 7.87649C52.167 7.51127 51.9123 7.07569 51.7619 6.60113C51.6115 6.12657 51.5691 5.62485 51.6378 5.13208C51.7631 4.08 52.2716 3.1095 53.0676 2.40285C53.8708 1.69036 54.9047 1.28531 55.9821 1.26335ZM70.4031 35.4547C70.0778 37.1721 70.2755 38.3673 71.5102 38.3673C72.5909 38.2023 73.6035 37.741 74.4337 37.0356L74.5497 38.9465C72.8541 40.4723 70.665 41.3481 68.3763 41.4165C64.3457 41.4165 62.7857 38.5608 63.3801 35.0108L67.3406 12.9948C68.6569 5.64429 68.2015 4.67679 64.1709 4.67679L64.4273 2.9024L76.5765 1.33164L70.4031 35.4547ZM104.569 35.3965C104.242 37.1152 104.37 38.3787 105.675 38.3787C106.758 38.178 107.767 37.6947 108.599 36.9786V38.9465C106.915 40.4894 104.719 41.368 102.426 41.4165C101.266 41.4999 100.116 41.1548 99.1977 40.4477C98.2863 39.7476 97.675 38.7323 97.486 37.6047C96.5082 38.8675 95.2533 39.893 93.8163 40.6033C92.372 41.3183 90.7838 41.7013 89.1696 41.7238C81.4464 41.7238 78.1964 35.0677 79.6875 27.0684C81.1786 19.0704 88.1314 12.5395 95.9949 12.5395C97.8539 12.5008 99.6928 12.9271 101.342 13.7789L101.54 12.7671C103.078 4.93858 102.367 4.67679 98.3367 4.67679L98.5344 2.9024L110.741 1.33164L104.568 35.3978L104.569 35.3965ZM96.1926 15.4066C91.7079 15.4066 88.727 20.6058 87.5497 27.0115C86.315 33.7359 87.0957 38.3901 91.3125 38.3901C94.1658 38.3901 97.4158 34.9753 98.3941 29.7648L100.795 16.5676C99.4067 15.7462 97.8077 15.3428 96.1926 15.4066ZM125.093 41.7339C116.065 41.7339 113.596 35.3851 114.703 29.2981L117.649 12.9948C119.013 5.63417 118.559 4.61988 114.528 4.61988L114.783 2.84549L126.968 1.33164L124.499 15.1561C126.404 13.5423 128.809 12.623 131.314 12.5508C139.176 12.5508 142.869 19.0818 141.448 27.0798C140.027 35.0791 132.793 41.7339 125.093 41.7339ZM129.31 15.5659C128 15.5913 126.732 16.022 125.681 16.7977C124.638 17.5674 123.87 18.6459 123.486 19.8773L121.668 30.1176C120.561 36.2046 122.776 38.6847 125.571 38.6847C129.659 38.6847 132.199 34.2481 133.561 26.9546C134.773 20.4236 133.667 15.6001 129.298 15.6001L129.31 15.5659ZM153.76 30.7664C153.76 35.6482 156.159 38.2535 160.749 38.2535C163.079 38.2535 166.468 36.6726 168.612 34.5782L169.52 36.603C167.976 38.2004 166.126 39.4765 164.078 40.3567C162.022 41.2405 159.81 41.7124 157.569 41.7453C150.755 41.7453 146.142 36.7965 146.142 30.0721C146.142 20.1163 154.587 12.5622 162.707 12.5622C167.645 12.5622 170.429 15.2244 170.429 18.3306C170.371 23.1541 165.689 28.5709 153.76 30.7664ZM162.135 15.4748C158.431 15.4748 154.867 20.7423 153.888 28.2863C161.355 26.5107 164.534 21.5619 164.605 18.3875C164.593 16.6131 163.742 15.4748 162.124 15.4748H162.135ZM196.93 41.4165C195.77 41.4997 194.62 41.1547 193.702 40.4477C192.791 39.7475 192.18 38.7322 191.991 37.6047C191.049 38.8669 189.824 39.8944 188.412 40.6058C186.994 41.3217 185.428 41.7038 183.837 41.7226C176.242 41.7226 172.992 35.0677 174.518 27.0684C176.043 19.0704 182.881 12.5496 190.768 12.5496C192.439 12.5412 194.095 12.8668 195.636 13.507H203.045L199.073 35.3965C198.746 37.1152 198.875 38.3787 200.18 38.3787C201.262 38.1777 202.271 37.6944 203.103 36.9786V38.9465C201.419 40.4893 199.223 41.3679 196.93 41.4165ZM190.954 15.4066C186.597 15.4066 183.546 20.6058 182.38 27.0115C181.145 33.7359 181.996 38.3901 185.875 38.3901C188.857 38.3901 192.048 34.84 192.958 29.7648L195.357 16.5676C194.047 15.7462 192.514 15.3411 190.966 15.4066H190.954ZM225.772 20.0366C224.013 20.0366 223.557 18.7062 223.046 17.3061C222.871 16.5985 222.452 15.9738 221.861 15.5406C221.265 15.1038 220.536 14.8836 219.796 14.9171C218.835 14.8666 217.888 15.1702 217.139 15.7695C216.396 16.3628 215.905 17.2123 215.765 18.1484C215.568 19.8672 216.871 21.3228 219.341 23.4159L222.649 26.0781C223.879 26.9859 224.833 28.2108 225.409 29.6193C225.982 31.0231 226.152 32.5534 225.899 34.0433C225.06 38.7986 221.031 41.7226 215.636 41.7226C209.136 41.7226 204.99 37.979 205.444 35.442C205.55 34.7755 205.894 34.1647 206.417 33.7246C206.94 33.2819 207.607 33.0366 208.298 33.0302C209.987 33.0302 210.628 34.2937 211.152 35.9428C211.489 36.8914 212.135 37.7033 212.992 38.2547C213.853 38.8066 214.871 39.0654 215.893 38.9921C216.902 39.0396 217.894 38.7162 218.679 38.084C219.456 37.4571 219.967 36.5632 220.11 35.5799C220.366 33.3034 218.945 31.9046 216.278 29.5485L213.028 26.7611C211.886 25.9095 210.993 24.7714 210.441 23.464C209.893 22.1631 209.708 20.7398 209.906 19.3436C210.489 16.2944 213.401 12.5167 220.098 12.5167C225.293 12.5167 228.543 15.3724 228.253 17.659C228.22 18.2897 227.946 18.8843 227.487 19.3221C227.028 19.7622 226.415 20.0177 225.772 20.0366ZM249.546 16.0553H243.244L240.193 32.9164C239.54 36.4095 240.064 37.9917 242.009 37.9917C243.046 37.9917 244.676 37.4226 247.006 35.0791L247.134 37.5478C246.076 38.7716 244.764 39.755 243.288 40.4313C241.806 41.1114 240.194 41.4701 238.561 41.4835C234.147 41.4835 231.934 38.4356 232.982 32.7912L236.033 16.0553H231.106L231.491 13.4501H236.464L237.769 5.90608H245.038L243.675 13.4488H249.977L249.546 16.0553Z" fill="#9C9C9C"/>
</svg>
