<svg width="104" height="36" viewBox="0 0 104 36" fill="none" xmlns="http://www.w3.org/2000/svg">
<path d="M13.6205 10.2608C13.6205 10.7158 13.5882 11.1253 13.5237 11.4894H3.72567C3.80632 12.3994 4.14501 13.1123 4.74177 13.628C5.33852 14.1437 6.07236 14.4015 6.9433 14.4015C8.20132 14.4015 9.09645 13.8934 9.62869 12.8772H13.2818C12.8947 14.0906 12.1528 15.0916 11.0561 15.8803C9.95932 16.6539 8.6126 17.0407 7.01588 17.0407C5.7256 17.0407 4.56435 16.7752 3.53213 16.2444C2.51604 15.6983 1.71768 14.9324 1.13706 13.9465C0.57256 12.9606 0.290312 11.823 0.290312 10.5338C0.290312 9.22941 0.57256 8.08426 1.13706 7.09838C1.70155 6.11249 2.49185 5.35412 3.50794 4.82326C4.52403 4.2924 5.69334 4.02696 7.01588 4.02696C8.29003 4.02696 9.42708 4.28481 10.427 4.8005C11.4431 5.3162 12.2254 6.05182 12.7737 7.00737C13.3382 7.94776 13.6205 9.03223 13.6205 10.2608ZM10.1125 9.35075C10.0964 8.5317 9.78191 7.8795 9.16903 7.39414C8.55615 6.89362 7.80617 6.64335 6.91911 6.64335C6.08043 6.64335 5.37078 6.88603 4.79015 7.37139C4.22566 7.84158 3.87889 8.50137 3.74987 9.35075H10.1125Z" fill="#F6F6F6"/>
<path d="M15.2217 10.4883C15.2217 9.21424 15.4879 8.08426 16.0201 7.09838C16.5685 6.11249 17.3104 5.35412 18.2458 4.82326C19.1813 4.2924 20.2216 4.02696 21.3667 4.02696C22.2376 4.02696 23.0682 4.20897 23.8585 4.57299C24.6488 4.92185 25.2778 5.39204 25.7455 5.98357V0H29.1809V16.8359H25.7455V14.9703C25.3262 15.5922 24.7375 16.0927 23.9795 16.4719C23.2214 16.8511 22.3424 17.0407 21.3425 17.0407C20.2135 17.0407 19.1813 16.7676 18.2458 16.2216C17.3104 15.6756 16.5685 14.9096 16.0201 13.9237C15.4879 12.9227 15.2217 11.7775 15.2217 10.4883ZM25.7697 10.5338C25.7697 9.76027 25.6085 9.10049 25.2859 8.55446C24.9633 7.99326 24.5279 7.56857 23.9795 7.28039C23.4311 6.97704 22.8424 6.82536 22.2134 6.82536C21.5844 6.82536 21.0038 6.96945 20.4715 7.25764C19.9393 7.54582 19.5038 7.97051 19.1651 8.5317C18.8426 9.07773 18.6813 9.72993 18.6813 10.4883C18.6813 11.2467 18.8426 11.9141 19.1651 12.4904C19.5038 13.0516 19.9393 13.4839 20.4715 13.7872C21.0199 14.0906 21.6005 14.2423 22.2134 14.2423C22.8424 14.2423 23.4311 14.0982 23.9795 13.81C24.5279 13.5066 24.9633 13.0819 25.2859 12.5359C25.6085 11.9747 25.7697 11.3074 25.7697 10.5338Z" fill="#F6F6F6"/>
<path d="M45.1417 4.23173V16.8359H41.7305V15.2433C41.295 15.7893 40.7225 16.2216 40.0128 16.5401C39.3193 16.8435 38.5612 16.9952 37.7387 16.9952C36.6903 16.9952 35.763 16.7904 34.9565 16.3809C34.1501 15.9562 33.513 15.3419 33.0453 14.538C32.5937 13.719 32.3679 12.7483 32.3679 11.6259V4.23173H35.7549V11.1708C35.7549 12.1719 36.021 12.9454 36.5532 13.4915C37.0855 14.0223 37.8113 14.2878 38.7306 14.2878C39.666 14.2878 40.3999 14.0223 40.9321 13.4915C41.4644 12.9454 41.7305 12.1719 41.7305 11.1708V4.23173H45.1417Z" fill="#F6F6F6"/>
<path d="M47.6125 10.4883C47.6125 9.21424 47.8786 8.08426 48.4109 7.09838C48.9592 6.11249 49.6931 5.35412 50.6124 4.82326C51.5479 4.2924 52.5881 4.02696 53.7333 4.02696C54.7332 4.02696 55.6042 4.21656 56.3461 4.59574C57.1041 4.97493 57.7089 5.45271 58.1605 6.02907V4.23173H61.5717V16.8359H58.1605V14.993C57.7251 15.5846 57.1202 16.0775 56.3461 16.4719C55.588 16.8511 54.709 17.0407 53.7091 17.0407C52.5801 17.0407 51.5479 16.7676 50.6124 16.2216C49.6931 15.6756 48.9592 14.9096 48.4109 13.9237C47.8786 12.9227 47.6125 11.7775 47.6125 10.4883ZM58.1605 10.5338C58.1605 9.76027 57.9992 9.10049 57.6767 8.55446C57.3541 7.99326 56.9186 7.56857 56.3703 7.28039C55.8219 6.97704 55.2332 6.82536 54.6042 6.82536C53.9752 6.82536 53.3946 6.96945 52.8623 7.25764C52.3301 7.54582 51.8946 7.97051 51.5559 8.5317C51.2334 9.07773 51.0721 9.72993 51.0721 10.4883C51.0721 11.2467 51.2334 11.9141 51.5559 12.4904C51.8946 13.0516 52.3301 13.4839 52.8623 13.7872C53.4107 14.0906 53.9913 14.2423 54.6042 14.2423C55.2332 14.2423 55.8219 14.0982 56.3703 13.81C56.9186 13.5066 57.3541 13.0819 57.6767 12.5359C57.9992 11.9747 58.1605 11.3074 58.1605 10.5338Z" fill="#F6F6F6"/>
<path d="M68.2666 6.18833C68.7021 5.52096 69.2666 4.99768 69.9601 4.6185C70.6698 4.23931 71.4762 4.04972 72.3794 4.04972V7.39414H71.4843C70.4198 7.39414 69.6134 7.62924 69.065 8.09943C68.5328 8.56962 68.2666 9.38867 68.2666 10.5566V16.8359H64.8797V4.23173H68.2666V6.18833Z" fill="#F6F6F6"/>
<path d="M73.7898 10.4883C73.7898 9.21424 74.0559 8.08426 74.5881 7.09838C75.1365 6.11249 75.8784 5.35412 76.8138 4.82326C77.7493 4.2924 78.7896 4.02696 79.9347 4.02696C80.8056 4.02696 81.6363 4.20897 82.4265 4.57299C83.2168 4.92185 83.8459 5.39204 84.3136 5.98357V0H87.7489V16.8359H84.3136V14.9703C83.8942 15.5922 83.3056 16.0927 82.5475 16.4719C81.7895 16.8511 80.9105 17.0407 79.9105 17.0407C78.7815 17.0407 77.7493 16.7676 76.8138 16.2216C75.8784 15.6756 75.1365 14.9096 74.5881 13.9237C74.0559 12.9227 73.7898 11.7775 73.7898 10.4883ZM84.3378 10.5338C84.3378 9.76027 84.1765 9.10049 83.8539 8.55446C83.5313 7.99326 83.0959 7.56857 82.5475 7.28039C81.9991 6.97704 81.4105 6.82536 80.7814 6.82536C80.1524 6.82536 79.5718 6.96945 79.0396 7.25764C78.5073 7.54582 78.0719 7.97051 77.7332 8.5317C77.4106 9.07773 77.2493 9.72993 77.2493 10.4883C77.2493 11.2467 77.4106 11.9141 77.7332 12.4904C78.0719 13.0516 78.5073 13.4839 79.0396 13.7872C79.5879 14.0906 80.1686 14.2423 80.7814 14.2423C81.4105 14.2423 81.9991 14.0982 82.5475 13.81C83.0959 13.5066 83.5313 13.0819 83.8539 12.5359C84.1765 11.9747 84.3378 11.3074 84.3378 10.5338Z" fill="#F6F6F6"/>
<path d="M97.0083 17.0407C95.718 17.0407 94.5568 16.7752 93.5246 16.2444C92.4923 15.6983 91.6779 14.9324 91.0811 13.9465C90.5005 12.9606 90.2102 11.823 90.2102 10.5338C90.2102 9.24458 90.5085 8.10702 91.1053 7.12113C91.7182 6.13524 92.5488 5.37687 93.5971 4.84601C94.6455 4.29998 95.8148 4.02696 97.1051 4.02696C98.3954 4.02696 99.5647 4.29998 100.613 4.84601C101.661 5.37687 102.484 6.13524 103.081 7.12113C103.694 8.10702 104 9.24458 104 10.5338C104 11.823 103.685 12.9606 103.056 13.9465C102.444 14.9324 101.605 15.6983 100.54 16.2444C99.4921 16.7752 98.3147 17.0407 97.0083 17.0407ZM97.0083 14.265C97.6212 14.265 98.1937 14.1285 98.726 13.8555C99.2744 13.5673 99.7098 13.1426 100.032 12.5814C100.355 12.0202 100.516 11.3377 100.516 10.5338C100.516 9.33558 100.178 8.41795 99.5002 7.78091C98.8389 7.12871 98.0244 6.80261 97.0567 6.80261C96.089 6.80261 95.2745 7.12871 94.6132 7.78091C93.9681 8.41795 93.6455 9.33558 93.6455 10.5338C93.6455 11.732 93.96 12.6573 94.589 13.3095C95.2342 13.9465 96.0406 14.265 97.0083 14.265Z" fill="#F6F6F6"/>
<path d="M7.30619 25.8075H4.9595V35.7952H1.52414V25.8075H0V23.1911H1.52414V22.554C1.52414 21.007 1.99186 19.8694 2.92731 19.1414C3.86276 18.4133 5.274 18.072 7.16103 18.1175V20.8022C6.33848 20.787 5.76592 20.9159 5.44335 21.189C5.12078 21.462 4.9595 21.9549 4.9595 22.6678V23.1911H7.30619V25.8075Z" fill="#F6F6F6"/>
<path d="M8.63017 29.4477C8.63017 28.1736 8.89629 27.0436 9.42853 26.0577C9.9769 25.0718 10.7107 24.3135 11.6301 23.7826C12.5655 23.2517 13.6058 22.9863 14.7509 22.9863C15.7509 22.9863 16.6218 23.1759 17.3637 23.5551C18.1218 23.9343 18.7266 24.412 19.1782 24.9884V23.1911H22.5893V35.7952H19.1782V33.9524C18.7427 34.5439 18.1379 35.0369 17.3637 35.4312C16.6057 35.8104 15.7267 36 14.7267 36C13.5977 36 12.5655 35.727 11.6301 35.181C10.7107 34.6349 9.9769 33.869 9.42853 32.8831C8.89629 31.882 8.63017 30.7369 8.63017 29.4477ZM19.1782 29.4932C19.1782 28.7196 19.0169 28.0598 18.6943 27.5138C18.3718 26.9526 17.9363 26.5279 17.3879 26.2397C16.8396 25.9364 16.2509 25.7847 15.6219 25.7847C14.9928 25.7847 14.4122 25.9288 13.88 26.217C13.3477 26.5052 12.9123 26.9299 12.5736 27.491C12.251 28.0371 12.0897 28.6893 12.0897 29.4477C12.0897 30.206 12.251 30.8734 12.5736 31.4498C12.9123 32.011 13.3477 32.4432 13.88 32.7466C14.4284 33.0499 15.009 33.2016 15.6219 33.2016C16.2509 33.2016 16.8396 33.0575 17.3879 32.7693C17.9363 32.466 18.3718 32.0413 18.6943 31.4953C19.0169 30.9341 19.1782 30.2667 19.1782 29.4932Z" fill="#F6F6F6"/>
<path d="M33.3245 23.0091C34.9212 23.0091 36.2115 23.4868 37.1953 24.4424C38.1791 25.3828 38.6711 26.7023 38.6711 28.4011V35.7952H35.2841V28.8334C35.2841 27.8323 35.018 27.0664 34.4857 26.5355C33.9535 25.9895 33.2277 25.7165 32.3084 25.7165C31.3729 25.7165 30.631 25.9895 30.0827 26.5355C29.5504 27.0664 29.2843 27.8323 29.2843 28.8334V35.7952H25.8973V23.1911H29.2843V24.7609C29.7359 24.2149 30.3085 23.7902 31.002 23.4868C31.7116 23.1683 32.4858 23.0091 33.3245 23.0091Z" fill="#F6F6F6"/>
<path d="M43.6096 21.6895C43.0128 21.6895 42.5128 21.5151 42.1096 21.1662C41.7225 20.8022 41.529 20.3548 41.529 19.8239C41.529 19.293 41.7225 18.8532 42.1096 18.5043C42.5128 18.1403 43.0128 17.9583 43.6096 17.9583C44.2063 17.9583 44.6982 18.1403 45.0853 18.5043C45.4885 18.8532 45.6901 19.293 45.6901 19.8239C45.6901 20.3548 45.4885 20.8022 45.0853 21.1662C44.6982 21.5151 44.2063 21.6895 43.6096 21.6895ZM45.2789 23.1911V35.7952H41.8919V23.1911H45.2789Z" fill="#F6F6F6"/>
<path d="M53.7541 36C52.6573 36 51.6735 35.818 50.8026 35.454C49.9316 35.0748 49.2381 34.5667 48.722 33.9296C48.222 33.2926 47.9478 32.5873 47.8994 31.8138H51.3106C51.3751 32.2991 51.6251 32.7011 52.0606 33.0196C52.5122 33.3381 53.0686 33.4974 53.7299 33.4974C54.375 33.4974 54.875 33.376 55.2298 33.1334C55.6008 32.8907 55.7862 32.5797 55.7862 32.2006C55.7862 31.791 55.5604 31.4877 55.1088 31.2905C54.6734 31.0782 53.9718 30.8506 53.0041 30.608C52.0041 30.3805 51.1816 30.1454 50.5364 29.9027C49.9074 29.66 49.3591 29.2884 48.8913 28.7879C48.4397 28.2873 48.2139 27.6124 48.2139 26.763C48.2139 26.0653 48.4236 25.4283 48.8429 24.8519C49.2784 24.2755 49.8913 23.8205 50.6816 23.4868C51.488 23.1531 52.4315 22.9863 53.5121 22.9863C55.1088 22.9863 56.383 23.3655 57.3346 24.1239C58.2862 24.8671 58.8103 25.8757 58.9071 27.1498H55.6653C55.6169 26.6493 55.3911 26.2549 54.9879 25.9667C54.6008 25.6634 54.0766 25.5117 53.4154 25.5117C52.8025 25.5117 52.3267 25.6179 51.988 25.8302C51.6654 26.0426 51.5041 26.3383 51.5041 26.7175C51.5041 27.1422 51.7299 27.4683 52.1815 27.6958C52.6331 27.9082 53.3347 28.1281 54.2863 28.3556C55.254 28.5831 56.0524 28.8182 56.6814 29.0609C57.3104 29.3036 57.8507 29.6827 58.3023 30.1984C58.77 30.699 59.0119 31.3663 59.0281 32.2006C59.0281 32.9286 58.8103 33.5808 58.3749 34.1572C57.9555 34.7335 57.3426 35.1885 56.5362 35.5222C55.7459 35.8407 54.8185 36 53.7541 36Z" fill="#F6F6F6"/>
<path d="M64.0099 35.9773C63.0744 35.9773 62.3244 35.7422 61.7599 35.272C61.1955 34.8018 60.9132 34.2102 60.9132 33.4974C60.9132 32.7693 61.1955 32.1702 61.7599 31.7C62.3244 31.2147 63.0744 30.972 64.0099 30.972C64.9292 30.972 65.6711 31.2147 66.2356 31.7C66.8001 32.1702 67.0823 32.7693 67.0823 33.4974C67.0823 34.2102 66.8001 34.8018 66.2356 35.272C65.6711 35.7422 64.9292 35.9773 64.0099 35.9773Z" fill="#F6F6F6"/>
</svg>
